<mxfile host="65bd71144e">
    <diagram id="LQ1pcsc1BfPfxenaj2oJ" name="Page-1">
        <mxGraphModel dx="835" dy="516" grid="1" gridSize="10" guides="1" tooltips="1" connect="1" arrows="1" fold="1" page="1" pageScale="1" pageWidth="827" pageHeight="1169" math="0" shadow="0">
            <root>
                <mxCell id="0"/>
                <mxCell id="1" parent="0"/>
                <mxCell id="ZRd0Djr3uVIx2CYlkQiB-1" value="" style="rounded=0;whiteSpace=wrap;html=1;" parent="1" vertex="1">
                    <mxGeometry x="330" y="170" width="800" height="600" as="geometry"/>
                </mxCell>
                <mxCell id="ZRd0Djr3uVIx2CYlkQiB-2" value="&lt;font style=&quot;font-size: 36px;&quot;&gt;Area of Trapezoid, with JS&lt;/font&gt;" style="text;html=1;strokeColor=none;fillColor=none;align=left;verticalAlign=middle;whiteSpace=wrap;rounded=0;" parent="1" vertex="1">
                    <mxGeometry x="371" y="260" width="689" height="30" as="geometry"/>
                </mxCell>
                <mxCell id="ZRd0Djr3uVIx2CYlkQiB-3" value="&lt;font style=&quot;font-size: 24px;&quot;&gt;Formula&lt;/font&gt;" style="text;html=1;strokeColor=none;fillColor=none;align=left;verticalAlign=middle;whiteSpace=wrap;rounded=0;" parent="1" vertex="1">
                    <mxGeometry x="371" y="306" width="420" height="30" as="geometry"/>
                </mxCell>
                <mxCell id="ZRd0Djr3uVIx2CYlkQiB-4" value="&lt;font style=&quot;font-size: 24px;&quot;&gt;&amp;nbsp;A = [ (a + b) / 2 ] h&amp;nbsp;&lt;/font&gt;" style="text;html=1;strokeColor=none;fillColor=none;align=left;verticalAlign=middle;whiteSpace=wrap;rounded=0;" parent="1" vertex="1">
                    <mxGeometry x="365" y="332" width="420" height="30" as="geometry"/>
                </mxCell>
                <mxCell id="ZRd0Djr3uVIx2CYlkQiB-5" value="&lt;font style=&quot;font-size: 24px;&quot;&gt;Please enter integers for dimensions:&lt;/font&gt;" style="text;html=1;strokeColor=none;fillColor=none;align=left;verticalAlign=middle;whiteSpace=wrap;rounded=0;" parent="1" vertex="1">
                    <mxGeometry x="370" y="404" width="420" height="30" as="geometry"/>
                </mxCell>
                <mxCell id="ZRd0Djr3uVIx2CYlkQiB-6" value="&lt;font style=&quot;font-size: 24px;&quot;&gt;a base:&amp;nbsp;&lt;/font&gt;" style="text;html=1;strokeColor=none;fillColor=none;align=left;verticalAlign=middle;whiteSpace=wrap;rounded=0;" parent="1" vertex="1">
                    <mxGeometry x="370" y="474" width="420" height="30" as="geometry"/>
                </mxCell>
                <mxCell id="ZRd0Djr3uVIx2CYlkQiB-8" value="&lt;font style=&quot;font-size: 24px;&quot;&gt;b&amp;nbsp;base:&amp;nbsp;&lt;/font&gt;" style="text;html=1;strokeColor=none;fillColor=none;align=left;verticalAlign=middle;whiteSpace=wrap;rounded=0;" parent="1" vertex="1">
                    <mxGeometry x="370" y="504" width="420" height="30" as="geometry"/>
                </mxCell>
                <mxCell id="ZRd0Djr3uVIx2CYlkQiB-9" value="&lt;font style=&quot;font-size: 24px;&quot;&gt;height:&amp;nbsp;&lt;/font&gt;" style="text;html=1;strokeColor=none;fillColor=none;align=left;verticalAlign=middle;whiteSpace=wrap;rounded=0;" parent="1" vertex="1">
                    <mxGeometry x="370" y="536" width="420" height="30" as="geometry"/>
                </mxCell>
                <mxCell id="ZRd0Djr3uVIx2CYlkQiB-10" value="" style="rounded=1;whiteSpace=wrap;html=1;fontSize=36;" parent="1" vertex="1">
                    <mxGeometry x="470" y="479" width="120" height="20" as="geometry"/>
                </mxCell>
                <mxCell id="ZRd0Djr3uVIx2CYlkQiB-11" value="" style="rounded=1;whiteSpace=wrap;html=1;fontSize=36;" parent="1" vertex="1">
                    <mxGeometry x="470" y="509" width="120" height="20" as="geometry"/>
                </mxCell>
                <mxCell id="ZRd0Djr3uVIx2CYlkQiB-12" value="" style="rounded=1;whiteSpace=wrap;html=1;fontSize=36;" parent="1" vertex="1">
                    <mxGeometry x="470" y="546" width="120" height="20" as="geometry"/>
                </mxCell>
                <mxCell id="ZRd0Djr3uVIx2CYlkQiB-13" value="&lt;font style=&quot;font-size: 24px;&quot;&gt;mm&lt;/font&gt;&lt;span style=&quot;color: rgba(0, 0, 0, 0); font-family: monospace; font-size: 0px;&quot;&gt;%3CmxGraphModel%3E%3Croot%3E%3CmxCell%20id%3D%220%22%2F%3E%3CmxCell%20id%3D%221%22%20parent%3D%220%22%2F%3E%3CmxCell%20id%3D%222%22%20value%3D%22%26lt%3Bfont%20style%3D%26quot%3Bfont-size%3A%2024px%3B%26quot%3B%26gt%3Ba%20base%3A%26amp%3Bnbsp%3B%26lt%3B%2Ffont%26gt%3B%22%20style%3D%22text%3Bhtml%3D1%3BstrokeColor%3Dnone%3BfillColor%3Dnone%3Balign%3Dleft%3BverticalAlign%3Dmiddle%3BwhiteSpace%3Dwrap%3Brounded%3D0%3B%22%20vertex%3D%221%22%20parent%3D%221%22%3E%3CmxGeometry%20x%3D%22370%22%20y%3D%22474%22%20width%3D%22420%22%20height%3D%2230%22%20as%3D%22geometry%22%2F%3E%3C%2FmxCell%3E%3C%2Froot%3E%3C%2FmxGraphModel%3E&lt;/span&gt;" style="text;html=1;strokeColor=none;fillColor=none;align=left;verticalAlign=middle;whiteSpace=wrap;rounded=0;" parent="1" vertex="1">
                    <mxGeometry x="620" y="479" width="420" height="30" as="geometry"/>
                </mxCell>
                <mxCell id="ZRd0Djr3uVIx2CYlkQiB-14" value="&lt;font style=&quot;font-size: 24px;&quot;&gt;mm&lt;/font&gt;&lt;span style=&quot;color: rgba(0, 0, 0, 0); font-family: monospace; font-size: 0px;&quot;&gt;%3CmxGraphModel%3E%3Croot%3E%3CmxCell%20id%3D%220%22%2F%3E%3CmxCell%20id%3D%221%22%20parent%3D%220%22%2F%3E%3CmxCell%20id%3D%222%22%20value%3D%22%26lt%3Bfont%20style%3D%26quot%3Bfont-size%3A%2024px%3B%26quot%3B%26gt%3Ba%20base%3A%26amp%3Bnbsp%3B%26lt%3B%2Ffont%26gt%3B%22%20style%3D%22text%3Bhtml%3D1%3BstrokeColor%3Dnone%3BfillColor%3Dnone%3Balign%3Dleft%3BverticalAlign%3Dmiddle%3BwhiteSpace%3Dwrap%3Brounded%3D0%3B%22%20vertex%3D%221%22%20parent%3D%221%22%3E%3CmxGeometry%20x%3D%22370%22%20y%3D%22474%22%20width%3D%22420%22%20height%3D%2230%22%20as%3D%22geometry%22%2F%3E%3C%2FmxCell%3E%3C%2Froot%3E%3C%2FmxGraphModel%3E&lt;/span&gt;" style="text;html=1;strokeColor=none;fillColor=none;align=left;verticalAlign=middle;whiteSpace=wrap;rounded=0;" parent="1" vertex="1">
                    <mxGeometry x="608" y="504" width="420" height="30" as="geometry"/>
                </mxCell>
                <mxCell id="ZRd0Djr3uVIx2CYlkQiB-16" value="&lt;font style=&quot;font-size: 24px;&quot;&gt;mm&lt;/font&gt;&lt;span style=&quot;color: rgba(0, 0, 0, 0); font-family: monospace; font-size: 0px;&quot;&gt;%3CmxGraphModel%3E%3Croot%3E%3CmxCell%20id%3D%220%22%2F%3E%3CmxCell%20id%3D%221%22%20parent%3D%220%22%2F%3E%3CmxCell%20id%3D%222%22%20value%3D%22%26lt%3Bfont%20style%3D%26quot%3Bfont-size%3A%2024px%3B%26quot%3B%26gt%3Ba%20base%3A%26amp%3Bnbsp%3B%26lt%3B%2Ffont%26gt%3B%22%20style%3D%22text%3Bhtml%3D1%3BstrokeColor%3Dnone%3BfillColor%3Dnone%3Balign%3Dleft%3BverticalAlign%3Dmiddle%3BwhiteSpace%3Dwrap%3Brounded%3D0%3B%22%20vertex%3D%221%22%20parent%3D%221%22%3E%3CmxGeometry%20x%3D%22370%22%20y%3D%22474%22%20width%3D%22420%22%20height%3D%2230%22%20as%3D%22geometry%22%2F%3E%3C%2FmxCell%3E%3C%2Froot%3E%3C%2FmxGraphModel%3E&lt;/span&gt;" style="text;html=1;strokeColor=none;fillColor=none;align=left;verticalAlign=middle;whiteSpace=wrap;rounded=0;" parent="1" vertex="1">
                    <mxGeometry x="608" y="531" width="420" height="30" as="geometry"/>
                </mxCell>
                <mxCell id="ZRd0Djr3uVIx2CYlkQiB-17" value="Calculate Area" style="rounded=1;whiteSpace=wrap;html=1;fontSize=20;" parent="1" vertex="1">
                    <mxGeometry x="371" y="620" width="159" height="40" as="geometry"/>
                </mxCell>
                <mxCell id="ZRd0Djr3uVIx2CYlkQiB-18" value="&lt;font style=&quot;font-size: 24px;&quot;&gt;Area is: 40 mmÂ²&lt;/font&gt;" style="text;html=1;strokeColor=none;fillColor=none;align=left;verticalAlign=middle;whiteSpace=wrap;rounded=0;" parent="1" vertex="1">
                    <mxGeometry x="365" y="690" width="420" height="30" as="geometry"/>
                </mxCell>
                <mxCell id="ZRd0Djr3uVIx2CYlkQiB-20" value="" style="shape=image;verticalLabelPosition=bottom;labelBackgroundColor=default;verticalAlign=top;aspect=fixed;imageAspect=0;image=data:image/png,iVBORw0KGgoAAAANSUhEUgAAANwAAADlCAMAAAAP8WnWAAABL1BMVEX////m5v8AAP/u7v8AAABJSf/s7P/f3/+Cgv96enrr6+v/AADzcX3l7v/p6f/o6P/k8P/Fxf/rvNCgoKCBgYHn2PD1hZT6Qkn0anX1X2nY2Njx8fGxsbEeHv/4+P/l6//b2//8dXROG+OMjIzKyv+kpP+fn/9JSUlxcXG+vr5fX18zMzNra/8SEv9ycv99ff9SUv+Tk/+MjP/Hx8clJSU8PDyurv9LS/8/P/9paWnAwP+ysv/4WGFVVf9mZv+np6caGhrR0dHtssbyj5/pzOKVlaV0dIDKyt/5T1dTU1MtLS1CAMteALl6h//nJUignfCGAKhoeP/cd6BTOO/8Jir9FRjsuMzwobNYWGHBwdaJiZevr8J4eIXxmKn7OT8qKv/+Y13+io28HGXlAAApAOBaIttBAAAJWklEQVR4nO2de3+bOBaGET51CkmgrZ20ARI6Q1pfMplmlripZztr3EsyTuc+u5N2M53u7ft/hpWEwdgGfEMSw0/PH3Zc41ZvpKNXR0fUiiKRSCQSiWRT7HMA0W1ghw5t0U1ghwOO6Cawow26LboNzAig6500RbeCDTp0FcWHjuh2MIGGXAc8Re9Ub2LBIacoTRjYje6J6LYUTo+4XAB4TvGqJ27UU5QhHpWVFDcEx6HaqigOzyad0OcqKS7CuxbdAmbYmtbWhqJbIak0W0xxhWp7qrLk3Xc1keIO1bvs+P6H7R8FaruvfnFUZ0bt1U+qQHFn6rGB2HHvZ/VrYdq21Bc1htrcm19OL4SJe6Y+Z9lxuw+3f1W3BGk7Uk8Nk6E448Gr5+qXgsQ9Uf9SZ6gNd9292ql6JEbcobrFsuOQ+3Gn/pX6VIg27AMspxMac3tb6qkQcYx9ACHzzQNU+1KIGzD2AcLuPWQeq3cEiGPsAxh3/+Ueqt0R4AasfQCFMYeMvwpwg6esfQCzt4cf6gLc4FB9zLjjaMxhcfzd4GvWPkC0Pfo77jqTvxsw9wEi7tttMi65uwEHH4jh7gbsfYDguvQJu8FjjtqwD5jMpxO0+5IOS+IGzziKe6J+xdwHsLiDf1BxZv2Qpxvw8AEUD0u+bsA8H5gRh93gkJu4Cw4+gMbLLwpHN+DlA+7Ow7E441jltVN0l4sPoPHyi8ItNzhSD1nnA2P23kQ/ccsNmO8LRUxiDpkGJzdgvS8U474+iMTxcgNePoCSMccrN7hQ7/OZTpDx5rfJC+wG95lr45gPJGKOU27AJx+guDf7iVcc3AD7AId8YEwi5rjkBjz2hSLcVzeJVxzc4BMvH0AzMcfBDTj6wGzPsc8N+PkAYSrmmOcGiOO+0OxsSXMDlm7A0QfQXMwxdgM++0IxZnKFQmDqBtzygTEzMcfWDbjlAyHu60fTw5KlG3D1AZQScyzd4IyrD2Apk0w8gpkbsPeB2dlqNuYYugFrHzCxtil1k92vCYzcgHWd2EQnAFNDYz7mmO0UMfcB4wrez4z7OW2s3IB5faD+Ft7Wp8flbspVLNyAvQ/ULuEKXRmTuI6qPFMw2Sn6hrkPGEFweXkJH+J/JqrPTcPADdjvC5lXAFc1NBd3szCoG7DPB+q38LaGJ5XLRb/Ewt2AQz5Qew9XRv2fcBuLSx+WxecGHPKBegB1s3YN9dtYHD2HModpFHymiH2d2CQuZ3yA3+vn8fhPswJUuBtwyAeMW+JyV/D7+w+Lgrvg3IBDPmCiWzw2DHR7FY//tOUXpdC6AZd9IdMIHyfD393/Nl1coW6AfYDr9kLEfMozpkA3OFJVTnXiaVKS1THG88LcgPe+UERmzBWZG5zyOS80h/txJ0NccW5wX/0b132hCZkxV1xuwD4fyMB48CrzvYJyA771gSTZMVeYG/CtDyRxb15nv1mIG2AfEDJVErJjrqDcQJQPIFJ8/Jj9plnE/Qaczo2mkRdzhbiBOB/AI++3m5x3sRtsei+yMB8g5MVcAW7A8/6BOdyP+3lvYzc420jcXUH5ACU/5jZ2A1H5QAi58zGPDd1AoA8Q8mMOd526iRsI9AFEMvGD3GFJ3ODJ2tp414lnWBRzm+UGQn0AJQ9wZ1D7Ym03EOoDhEUxt4kbcLt/IAN354/8YYm77mJNN+B8Xmie8Z2Peay9UyTYB5Zj3f+Z4pNQHyBEd2HlsGZucCwwHwjZPVg4LJH5eK26Ae/zQvMsI2693EC4D6D5E0VprOUGon1gaWovVnYD4T6AlrICtFZugH1A+Kjc3UktG8+wRhVZvA+gJZZflJXdQOS+0IS9JTpujSryN3zuJ85nYcozBucGq1SRy+ADNFlFrhGTed2KdQNRdeJZHiTJvmwlNyiDDyB6gijJ68yV5kpuUJJ8AMfcw5g/tvczxa3kBqXwAWrij3YiDnLErbJTJD4fCMHDcklxK7iB+HwgZPmeW36nSFydeAYcc8uKWzo3KE0+sELPLesG2AdQGaaTVWJu6Z2iMuQDIav03JJuUBIfQCvF3JK5QVl8AK02LJfbKTpTj2sl4ejl9mcx/9r+9738q58tzA0eq+rZnZJw8Z//vvs85t3nF/lXv1BfLByVJeJ/71a7/tPCcSmRSCQSwdi66BawowHgi24DO0YV/qJVG3qim8AOH7zqRp0HJ14TLNHNYEOLfOEjVPSb9aBFHkDxm91+1YYn/TZLC08q2BC6VZs3HfLtuA1oKF0LP4luTcH4ZC6Bc/pzULkvye2PnF43/MkT3BQGWH44j3i+4lX127eb0DqvWsxF2E3P8xqiWyGRSCQSiUQikUgkEolEIpFIJBKJePTuWh+z1/sYX2xSixsGsLgM5wWkJhnjj0vm/aC8JwN6tNDhgJP2ppdUo/Rhqj6uaeHzdWnrQJ2wZW1Ireu3pyTDtAo77DEdSjtAe+FwDILUd7WkOAu0mc/S1w4MWDSsAOxwOOpw3m0H82fZpsQ50OqPWoke9mhPauD121PRWBaGMCRPHXI2Q4O5AvGUuD45yRckDoU5dCyfQ6OkcdcJ44aGnIaF2k4kxyL0G/Qp/BN6vIGo0D1r8mEdRkp89KFchL98hRa+T8DyG8H49ILVa2GCE/LYoj2qk5DTIVAajfHc75NupyFnQVNM+3OhJ05w5PXDduNJYupoRnJYdkh4OkTheJoMe04jD02w9PIdetDDE7Ek5Bp0UsgWR8OTnniLxDXIC9rp+PcyEnFGbMHqAaiHe4E1COfNbHFKq29pQdjR4V/a7ZHfDu505bw7EHEYp7sg0r1wEWUNnHBY5YhT/EFoFpE4+uugn7MdEVbQgQVztD2zMJwW105dlCnhZzqCp38bIH1dNaGTPDLqt7vdfmJmsNI+3GiP+mRyFL1e7nYWn6FvaAsuyGAkeFHS6eLJLF752QmSVw3X+rtt0XkOkBsEYnu9hgllXAquRrtDFrejnCv0IuGmizCEdr/do+uODPS2Vhx8F2ABCS4f4rX+oDHhz37kvEnjCptBFPleM0YTPRtshtOmC6thA6Cf7sR/Ynx/SAzO8odDf725PobzVMET56Tdmt08qQoWyYaadOlfPejK24L57ZVK4FgVFkfQoIL3hYzxK6zNwsvsqrqBfo2VXVcz5nTQms12GfdcN0cP87/SFnI2who4mMGGKziJRCKRSCQSSdn4Pw25J2KO5Fw2AAAAAElFTkSuQmCC;" parent="1" vertex="1">
                    <mxGeometry x="820" y="431" width="220" height="229" as="geometry"/>
                </mxCell>
            </root>
        </mxGraphModel>
    </diagram>
    <diagram id="41IrTdzB5kc-l3ZdfvYF" name="Page-2">
        <mxGraphModel dx="835" dy="516" grid="1" gridSize="10" guides="1" tooltips="1" connect="1" arrows="1" fold="1" page="1" pageScale="1" pageWidth="827" pageHeight="1169" math="0" shadow="0">
            <root>
                <mxCell id="0"/>
                <mxCell id="1" parent="0"/>
            </root>
        </mxGraphModel>
    </diagram>
</mxfile>